<?xml version="1.0" encoding="UTF-8"?>
<svg version="1.1" xmlns="http://www.w3.org/2000/svg" width="250" height="200">
<path d="M0 0 C0.65370483 -0.00538554 1.30740965 -0.01077108 1.98092371 -0.01631981 C4.15183143 -0.03052519 6.32212296 -0.02351458 8.49305725 -0.01637268 C10.0574492 -0.02208016 11.62183699 -0.02904588 13.18621826 -0.03717041 C17.42180334 -0.05507515 21.65718094 -0.05393854 25.89279246 -0.04822803 C29.43399748 -0.04513232 32.97516288 -0.05123286 36.51636225 -0.05726677 C44.87288542 -0.07130153 53.22930634 -0.06975942 61.58583069 -0.05836487 C70.19567541 -0.04688406 78.80520862 -0.06096102 87.4150123 -0.08776134 C94.81821186 -0.10993967 102.22131379 -0.11655094 109.6245442 -0.11068493 C114.04130583 -0.10731932 118.45786779 -0.10970405 122.87460136 -0.12693596 C127.02882502 -0.14243715 131.18258823 -0.13841467 135.3367939 -0.11963081 C136.85730529 -0.1159537 138.37785103 -0.11902776 139.89833069 -0.1295166 C149.09123036 -0.18806887 156.02723019 0.08211055 163.34486389 6.24705505 C163.87466858 6.8709613 164.40447327 7.49486755 164.95033264 8.13768005 C165.49302795 8.7512738 166.03572327 9.36486755 166.59486389 9.99705505 C171.6526148 17.83336785 171.55637063 25.24011419 171.63783264 34.32518005 C172.05052804 52.94181135 172.96218571 74.21203312 186.95033264 88.20018005 C190.62698526 90.72337303 193.91279847 92.00361714 198.13783264 93.38768005 C198.13783264 98.00768005 198.13783264 102.62768005 198.13783264 107.38768005 C195.98939514 108.00616964 193.84095764 108.62465922 191.69252014 109.2431488 C183.56389551 112.88487207 180.2020797 119.61248432 176.86585999 127.46629333 C174.9184258 132.60589999 173.958291 137.97265491 173.13783264 143.38768005 C172.95607483 144.5581488 172.77431702 145.72861755 172.58705139 146.93455505 C172.14040727 150.60530153 172.03514864 154.24625741 171.96205139 157.94236755 C171.93820374 159.13475037 171.91435608 160.32713318 171.88978577 161.5556488 C171.84695588 164.01901636 171.81563011 166.48261186 171.79603577 168.9462738 C171.59218376 177.73561377 170.4956942 185.1903531 164.88783264 192.20018005 C157.60391817 197.99420293 152.25319049 200.50273644 142.82661438 200.52812195 C140.91738693 200.53668716 140.91738693 200.53668716 138.96958923 200.54542542 C137.56636057 200.54667062 136.1631318 200.54779575 134.75990295 200.54881287 C133.27624896 200.55344425 131.79259614 200.55846934 130.3089447 200.56385803 C126.2839719 200.57695342 122.25901577 200.58342143 118.234025 200.58786869 C115.7167571 200.59080412 113.19949371 200.59490982 110.68222809 200.59937286 C102.79866217 200.61304044 94.91510661 200.62271064 87.03152966 200.62657475 C77.94526286 200.63105342 68.85914664 200.6485955 59.77292562 200.67757535 C52.74004284 200.69922406 45.70720233 200.70928074 38.6742866 200.71061587 C34.47825114 200.71166164 30.28235737 200.71752073 26.08635712 200.73543549 C22.1366145 200.75197139 18.18711927 200.75404508 14.23735428 200.74529648 C12.79304718 200.74452904 11.34872648 200.74882992 9.90445328 200.75875473 C-1.25730582 200.83091811 -9.80671131 200.13776613 -18.13560486 192.2900238 C-23.36136605 186.53222811 -24.9496898 180.88061633 -25.07310486 173.2509613 C-25.00856511 140.47804416 -25.00856511 140.47804416 -39.86216736 112.38768005 C-43.68262826 109.49056779 -47.10550593 108.33901234 -51.86216736 107.38768005 C-51.86216736 102.76768005 -51.86216736 98.14768005 -51.86216736 93.38768005 C-50.52154236 92.85143005 -49.18091736 92.31518005 -47.79966736 91.76268005 C-38.8720689 87.69068765 -35.02955692 82.97220206 -31.14732361 73.90330505 C-27.43746061 63.75474365 -25.89254986 53.37217515 -25.68638611 42.61424255 C-25.66253845 41.37674255 -25.6386908 40.13924255 -25.61412048 38.86424255 C-25.57128528 36.30451437 -25.53996241 33.74456665 -25.52037048 31.18455505 C-25.28383997 20.60118979 -23.63679336 12.44887323 -15.93638611 4.8603363 C-10.8230668 1.22997589 -6.21034291 0.0129749 0 0 Z " fill="#7C11F7" transform="translate(51.86216735839844,-0.3876800537109375)"/>
<path d="M0 0 C59.54353234 0 59.54353234 0 69.30859375 8.1953125 C74.49090512 13.72470708 76.3205035 19.49696043 76.6875 27 C76.41565846 33.93951042 74.54701753 38.75802346 70 44 C66.94742812 46.78209083 63.95140373 48.68286542 60 50 C60.56847656 50.23074219 61.13695312 50.46148437 61.72265625 50.69921875 C71.12471249 54.67037105 76.83698327 58.3837754 81 68 C83.33505796 75.64066434 82.34820207 83.81883933 79 91 C72.16019017 101.31712322 63.75283474 104.38825895 52 107 C34.84 107 17.68 107 0 107 C0 71.69 0 36.38 0 0 Z " fill="#F3EAFC" transform="translate(86,46)"/>
<path d="M0 0 C4.90875 -0.0825 9.8175 -0.165 14.875 -0.25 C16.40237793 -0.28641602 17.92975586 -0.32283203 19.50341797 -0.36035156 C28.47322262 -0.43298156 36.81416793 -0.08373861 43.5625 6.5 C46.16399733 11.02434318 46.35426757 14.77455336 46 20 C44.33236419 25.17844803 42.59004726 28.04925533 38 31 C32.38655719 33.73475419 26.67955728 34.12704551 20.5078125 34.09765625 C19.4264502 34.09515869 18.34508789 34.09266113 17.23095703 34.09008789 C15.1985083 34.07643188 15.1985083 34.07643188 13.125 34.0625 C8.79375 34.041875 4.4625 34.02125 0 34 C0 22.78 0 11.56 0 0 Z " fill="#7812F1" transform="translate(104,105)"/>
<path d="M0 0 C4.269375 -0.0825 8.53875 -0.165 12.9375 -0.25 C14.26515381 -0.28641602 15.59280762 -0.32283203 16.96069336 -0.36035156 C25.42645508 -0.43910874 31.99912778 0.49923681 38.5 6.1875 C41.32340804 11.48139007 41.56348419 16.0904147 39.875 21.8125 C36.64138176 27.30965101 33.02572134 29.31250723 27 31 C23.84033203 31.22705078 23.84033203 31.22705078 20.5078125 31.1953125 C19.4264502 31.19031738 18.34508789 31.18532227 17.23095703 31.18017578 C15.87599121 31.16196777 14.52102539 31.14375977 13.125 31.125 C8.79375 31.08375 4.4625 31.0425 0 31 C0 20.77 0 10.54 0 0 Z " fill="#7D14F2" transform="translate(104,60)"/>
</svg>
